<svg xmlns="http://www.w3.org/2000/svg" viewBox="0 0 80 100">
  <rect width="80" height="100" fill="#F9F8F4"/>
  <line x1="0" y1="15" x2="80" y2="95" stroke="#D8D8D0" stroke-width="0.7"/>
  <line x1="12" y1="0" x2="92" y2="80" stroke="#D8D8D0" stroke-width="0.7"/>
  <line x1="-12" y1="15" x2="68" y2="95" stroke="#D8D8D0" stroke-width="0.7"/>
  <line x1="24" y1="0" x2="104" y2="80" stroke="#DDDDD8" stroke-width="0.5"/>
  <circle cx="40" cy="40" r="16" fill="none" stroke="#404040" stroke-width="1.8"/>
  <ellipse cx="40" cy="27" rx="16" ry="10" fill="none" stroke="#303030" stroke-width="1.8"/>
  <path d="M26 23 L27 32 M29 21 L30 30 M33 19 L34 29 M37 18 L37 28 M40 18 L40 28 M43 18 L43 28 M47 19 L46 29 M50 21 L49 30 M53 23 L52 32" stroke="#2C2C2C" stroke-width="0.9" fill="none"/>
  <ellipse cx="33" cy="40" rx="3.5" ry="2.5" fill="none" stroke="#404040" stroke-width="1.2"/>
  <ellipse cx="47" cy="40" rx="3.5" ry="2.5" fill="none" stroke="#404040" stroke-width="1.2"/>
  <path d="M29 35 L28 32 M32 34 L31 31 M36 33 L35 30" stroke="#383838" stroke-width="0.9" fill="none"/>
  <path d="M44 33 L44 30 M47 34 L47 31 M51 35 L52 32" stroke="#383838" stroke-width="0.9" fill="none"/>
  <path d="M36 48 Q40 52 44 48" stroke="#484848" stroke-width="1.3" fill="none"/>
  <path d="M24 68 Q32 58 40 66 Q48 58 56 68 L56 100 L24 100 Z" fill="none" stroke="#404040" stroke-width="1.5"/>
  <path d="M26 75 L36 86 M30 70 L42 84 M35 70 L48 83" stroke="#888888" stroke-width="0.9" fill="none" opacity="0.6"/>
</svg>
